<svg xmlns="http://www.w3.org/2000/svg" xmlns:xlink="http://www.w3.org/1999/xlink" width="43" height="43" viewBox="0 0 43 43">
  <defs>
    <clipPath id="clip-path">
      <rect id="Rectangle_26" data-name="Rectangle 26" width="43" height="43" transform="translate(181 1290)" fill="none" stroke="#707070" stroke-width="1"/>
    </clipPath>
  </defs>
  <g id="Mask_Group_4" data-name="Mask Group 4" transform="translate(-181 -1290)" clip-path="url(#clip-path)">
    <g id="Group_333" data-name="Group 333" transform="translate(184.257 1303.168) rotate(-13)">
      <g id="Group_126" data-name="Group 126" transform="translate(0 0)">
        <g id="Group_125" data-name="Group 125">
          <g id="Group_109" data-name="Group 109">
            <g id="Group_108" data-name="Group 108">
              <g id="Group_107" data-name="Group 107">
                <g id="Group_106" data-name="Group 106">
                  <g id="Group_105" data-name="Group 105">
                    <path id="Path_48" data-name="Path 48" d="M24.94,26.421a2.257,2.257,0,0,1-1.581-1.043L21.1,22.4,4.912,19.067A6.231,6.231,0,0,1,.121,11.8l1.42-6.887A6.227,6.227,0,0,1,8.808.122L26.032,3.666a6.234,6.234,0,0,1,4.788,7.269L28.056,24.369A2.706,2.706,0,0,1,24.94,26.421ZM8.453,1.845A4.348,4.348,0,0,0,3.264,5.264l-1.42,6.889a4.356,4.356,0,0,0,3.421,5.193l16.535,3.4a.648.648,0,0,1,.48.278l2.533,3.393a.83.83,0,0,0,1.519-.4L29.1,10.581a4.352,4.352,0,0,0-3.419-5.192L8.453,1.845Z" fill="#0c7ac0"/>
                  </g>
                </g>
              </g>
            </g>
          </g>
          <g id="Group_114" data-name="Group 114" transform="translate(7.281 9.035)">
            <g id="Group_113" data-name="Group 113" transform="translate(0 0)">
              <g id="Group_112" data-name="Group 112">
                <g id="Group_111" data-name="Group 111">
                  <g id="Group_110" data-name="Group 110">
                    <path id="Path_49" data-name="Path 49" d="M.982,2.466a1.355,1.355,0,0,1-.791-.523,1.336,1.336,0,0,1-.167-.932A1.357,1.357,0,0,1,.545.22a1.381,1.381,0,0,1,1.9.391,1.338,1.338,0,0,1,.166.932,1.344,1.344,0,0,1-.521.79A2.515,2.515,0,0,1,.982,2.466Z" fill="#0c7ac0"/>
                  </g>
                </g>
              </g>
            </g>
          </g>
          <g id="Group_119" data-name="Group 119" transform="translate(14.171 10.453)">
            <g id="Group_118" data-name="Group 118" transform="translate(0 0)">
              <g id="Group_117" data-name="Group 117">
                <g id="Group_116" data-name="Group 116">
                  <g id="Group_115" data-name="Group 115">
                    <path id="Path_50" data-name="Path 50" d="M.982,2.467a1.351,1.351,0,0,1-.79-.523,1.346,1.346,0,0,1-.169-.932A1.343,1.343,0,0,1,.547.221,1.381,1.381,0,0,1,2.441.61a1.337,1.337,0,0,1,.166.932,1.328,1.328,0,0,1-.521.791A2.548,2.548,0,0,1,.982,2.467Z" fill="#0c7ac0"/>
                  </g>
                </g>
              </g>
            </g>
          </g>
          <g id="Group_124" data-name="Group 124" transform="translate(21.06 11.87)">
            <g id="Group_123" data-name="Group 123" transform="translate(0 0)">
              <g id="Group_122" data-name="Group 122">
                <g id="Group_121" data-name="Group 121">
                  <g id="Group_120" data-name="Group 120">
                    <path id="Path_51" data-name="Path 51" d="M.979,2.465A1.341,1.341,0,0,1,.19,1.942a1.333,1.333,0,0,1-.166-.931A1.341,1.341,0,0,1,.546.22,1.381,1.381,0,0,1,2.44.611a1.336,1.336,0,0,1,.169.932,1.35,1.35,0,0,1-.522.789A2.465,2.465,0,0,1,.979,2.465Z" fill="#0c7ac0"/>
                  </g>
                </g>
              </g>
            </g>
          </g>
        </g>
      </g>
    </g>
  </g>
</svg>
