<svg xmlns="http://www.w3.org/2000/svg" xmlns:xlink="http://www.w3.org/1999/xlink" width="43" height="33" viewBox="0 0 43 33">
  <defs>
    <clipPath id="clip-path">
      <rect id="Rectangle_30" data-name="Rectangle 30" width="43" height="33" transform="translate(177 1123)" fill="none" stroke="#707070" stroke-width="1"/>
    </clipPath>
    <clipPath id="clip-path-2">
      <rect id="Rectangle_25" data-name="Rectangle 25" width="43" height="43" transform="translate(178 1118)" fill="none" stroke="#707070" stroke-width="1"/>
    </clipPath>
  </defs>
  <g id="Mask_Group_9" data-name="Mask Group 9" transform="translate(-177 -1123)" clip-path="url(#clip-path)">
    <g id="Mask_Group_5" data-name="Mask Group 5" clip-path="url(#clip-path-2)">
      <g id="Group_319" data-name="Group 319" transform="translate(183 1126.841)">
        <g id="Group_186" data-name="Group 186">
          <g id="Group_185" data-name="Group 185">
            <g id="Group_179" data-name="Group 179">
              <g id="Group_178" data-name="Group 178">
                <g id="Group_177" data-name="Group 177">
                  <g id="Group_176" data-name="Group 176">
                    <g id="Group_175" data-name="Group 175">
                      <path id="Path_58" data-name="Path 58" d="M136.9,175.339a3.49,3.49,0,0,1-1.432-4.009L139,162.4a1.439,1.439,0,0,0-.4-1.591l-7.338-6.189a3.1,3.1,0,0,1-.836-3.878,2.835,2.835,0,0,1,3.512-1.73l25.771,4.369a3.306,3.306,0,0,1,2.725,2.978,3.484,3.484,0,0,1-1.257,2.853l-20.629,16.049A3.443,3.443,0,0,1,136.9,175.339Zm23.01-20.031c-.164-.1-.329-.2-.5-.3l-25.769-4.367a1.03,1.03,0,0,0-1.359.766,1.4,1.4,0,0,0,.4,1.589l7.338,6.189a3.287,3.287,0,0,1,.934,3.712l-3.532,8.925a1.416,1.416,0,0,0,.566,1.693,1.089,1.089,0,0,0,1.393-.071l20.63-16.049a1.08,1.08,0,0,0,.427-1.095C160.64,155.968,160.241,155.506,159.907,155.307Z" transform="translate(-130.088 -148.882)" fill="#0c7ac0"/>
                    </g>
                  </g>
                </g>
              </g>
            </g>
            <g id="Group_184" data-name="Group 184" transform="translate(9.67 6.394)">
              <g id="Group_183" data-name="Group 183">
                <g id="Group_182" data-name="Group 182">
                  <g id="Group_181" data-name="Group 181">
                    <g id="Group_180" data-name="Group 180">
                      <path id="Path_59" data-name="Path 59" d="M140.546,160.9l20.149-5.073a.958.958,0,1,1,.47,1.857l-20.153,5.073Z" transform="translate(-140.546 -155.797)" fill="#0c7ac0"/>
                    </g>
                  </g>
                </g>
              </g>
            </g>
          </g>
        </g>
      </g>
    </g>
  </g>
</svg>
