<svg xmlns="http://www.w3.org/2000/svg" xmlns:xlink="http://www.w3.org/1999/xlink" width="43" height="33" viewBox="0 0 43 33">
  <defs>
    <clipPath id="clip-path">
      <rect id="Rectangle_31" data-name="Rectangle 31" width="43" height="33" transform="translate(549 1123)" fill="none" stroke="#707070" stroke-width="1"/>
    </clipPath>
  </defs>
  <g id="Mask_Group_7" data-name="Mask Group 7" transform="translate(-549 -1123)" clip-path="url(#clip-path)">
    <g id="Group_355" data-name="Group 355" transform="translate(554.304 1125.654)">
      <g id="Group_75" data-name="Group 75">
        <g id="Group_74" data-name="Group 74">
          <g id="Group_62" data-name="Group 62">
            <g id="Group_61" data-name="Group 61">
              <g id="Group_60" data-name="Group 60">
                <g id="Group_59" data-name="Group 59">
                  <g id="Group_58" data-name="Group 58">
                    <path id="Path_40" data-name="Path 40" d="M318.869,203.475h-2.145a.974.974,0,1,1,0-1.948h2.145a3.125,3.125,0,0,0,2.144-.977,2.432,2.432,0,0,0,.586-2.339,2.949,2.949,0,0,0-2.341-2.145l-1.168-.194a2.386,2.386,0,0,1-1.951-2.73l.194-1.366V191a5.442,5.442,0,0,0-1.561-3.9,5.79,5.79,0,0,0-3.9-1.562,5.258,5.258,0,0,0-4.681,3.317l-.391.779A2.233,2.233,0,0,1,303.266,191l-.974-.194a4.217,4.217,0,0,0-4.29,2.73l-.194.777a2.056,2.056,0,0,1-1.948,1.562l-.978.194a2.815,2.815,0,0,0-1.95,1.366,2.517,2.517,0,0,0-.2,2.339,3.062,3.062,0,0,0,2.731,1.757h1.95a.919.919,0,0,1,.975.974,1.09,1.09,0,0,1-1.17.975h-1.95a4.461,4.461,0,0,1-4.486-3.12,4.549,4.549,0,0,1,.39-3.9,4.8,4.8,0,0,1,3.317-2.148l.975-.194a.421.421,0,0,0,.393-.389l.192-.782a6.106,6.106,0,0,1,5.656-4.094h.585l.974.194a.724.724,0,0,0,.588-.194l.39-.781a7.823,7.823,0,0,1,6.435-4.487,8.192,8.192,0,0,1,5.462,1.951,7.744,7.744,0,0,1,2.341,5.267,2.46,2.46,0,0,1-.2,1.168l-.194,1.366c0,.2.194.585.39.585l1.168.194a4.71,4.71,0,0,1-.779,9.361Z" transform="translate(-290.529 -183.583)" fill="#0c7ac0"/>
                  </g>
                </g>
              </g>
            </g>
          </g>
          <g id="Group_73" data-name="Group 73" transform="translate(12.446 17.162)">
            <g id="Group_67" data-name="Group 67" transform="translate(0 0.098)">
              <g id="Group_66" data-name="Group 66">
                <g id="Group_65" data-name="Group 65">
                  <g id="Group_64" data-name="Group 64">
                    <g id="Group_63" data-name="Group 63">
                      <path id="Path_41" data-name="Path 41" d="M307.833,202.755a1.177,1.177,0,0,1-.782-.194l-2.144-2.339-2.341,2.339A.966.966,0,1,1,301.2,201.2l2.927-2.925a.94.94,0,0,1,1.365,0l2.924,2.925a.94.94,0,0,1,0,1.366A.847.847,0,0,1,307.833,202.755Z" transform="translate(-300.908 -197.977)" fill="#0c7ac0"/>
                    </g>
                  </g>
                </g>
              </g>
            </g>
            <g id="Group_72" data-name="Group 72" transform="translate(3.025)">
              <g id="Group_71" data-name="Group 71">
                <g id="Group_70" data-name="Group 70">
                  <g id="Group_69" data-name="Group 69">
                    <g id="Group_68" data-name="Group 68">
                      <path id="Path_42" data-name="Path 42" d="M304.4,209.6a.92.92,0,0,1-.974-.974v-9.752a.974.974,0,1,1,1.948,0v9.752A1.045,1.045,0,0,1,304.4,209.6Z" transform="translate(-303.431 -197.896)" fill="#0c7ac0"/>
                    </g>
                  </g>
                </g>
              </g>
            </g>
          </g>
        </g>
      </g>
    </g>
  </g>
</svg>
