<svg xmlns="http://www.w3.org/2000/svg" xmlns:xlink="http://www.w3.org/1999/xlink" width="43" height="36" viewBox="0 0 43 36">
  <defs>
    <clipPath id="clip-path">
      <rect id="Rectangle_32" data-name="Rectangle 32" width="43" height="36" transform="translate(549 1290)" fill="none" stroke="#707070" stroke-width="1"/>
    </clipPath>
    <clipPath id="clip-path-2">
      <rect id="Rectangle_27" data-name="Rectangle 27" width="43" height="43" transform="translate(549 1286)" fill="none" stroke="#707070" stroke-width="1"/>
    </clipPath>
  </defs>
  <g id="Mask_Group_8" data-name="Mask Group 8" transform="translate(-549 -1290)" clip-path="url(#clip-path)">
    <g id="Mask_Group_3" data-name="Mask Group 3" clip-path="url(#clip-path-2)">
      <g id="Group_329" data-name="Group 329" transform="translate(551.416 1287.122)">
        <g id="Group_104" data-name="Group 104" transform="translate(0 6.73) rotate(-14)">
          <g id="Group_103" data-name="Group 103" transform="translate(0 0)">
            <g id="Group_87" data-name="Group 87" transform="translate(0)">
              <g id="Group_81" data-name="Group 81" transform="translate(0)">
                <g id="Group_80" data-name="Group 80" transform="translate(0)">
                  <g id="Group_79" data-name="Group 79" transform="translate(0)">
                    <g id="Group_78" data-name="Group 78" transform="translate(0)">
                      <g id="Group_77" data-name="Group 77" transform="translate(0)">
                        <path id="Path_43" data-name="Path 43" d="M18.54,35.325,3.667,31.746A4.735,4.735,0,0,1,.139,25.977L5.506,3.668A4.735,4.735,0,0,1,11.275.139L17.969,1.75a4.013,4.013,0,0,1,1.866,1.237l7.621,12.457a2.873,2.873,0,0,1,.255,2.224l-3.4,14.13A4.736,4.736,0,0,1,18.54,35.325ZM10.828,2a2.943,2.943,0,0,0-3.46,2.118L2,26.424a2.94,2.94,0,0,0,2.115,3.46l14.872,3.581a2.939,2.939,0,0,0,3.46-2.116l3.4-14.13c.044-.185-.053-.6-.008-.788L18.222,3.974c-.144-.23-.329-.276-.7-.365Z" transform="translate(0)" fill="#0c7ac0"/>
                      </g>
                    </g>
                  </g>
                </g>
              </g>
              <g id="Group_86" data-name="Group 86" transform="translate(15.63 2.634)">
                <g id="Group_85" data-name="Group 85" transform="translate(0 0)">
                  <g id="Group_84" data-name="Group 84">
                    <g id="Group_83" data-name="Group 83">
                      <g id="Group_82" data-name="Group 82">
                        <path id="Path_44" data-name="Path 44" d="M3.786.447,2,7.885a2.942,2.942,0,0,0,2.118,3.46l7.438,1.79L11.1,14.994,3.667,13.2A4.736,4.736,0,0,1,.138,7.438L1.928,0Z" fill="#0c7ac0"/>
                      </g>
                    </g>
                  </g>
                </g>
              </g>
            </g>
            <g id="Group_92" data-name="Group 92" transform="translate(5.908 25.652)">
              <g id="Group_91" data-name="Group 91" transform="translate(0 0)">
                <g id="Group_90" data-name="Group 90">
                  <g id="Group_89" data-name="Group 89">
                    <g id="Group_88" data-name="Group 88">
                      <path id="Path_45" data-name="Path 45" d="M11.893,4.579.738,1.893A.9.9,0,0,1,.034.739.9.9,0,0,1,1.186.033L12.34,2.717a.9.9,0,0,1,.706,1.153A.9.9,0,0,1,11.893,4.579Z" fill="#0c7ac0"/>
                    </g>
                  </g>
                </g>
              </g>
            </g>
            <g id="Group_97" data-name="Group 97" transform="translate(7.025 21.004)">
              <g id="Group_96" data-name="Group 96" transform="translate(0 0)">
                <g id="Group_95" data-name="Group 95">
                  <g id="Group_94" data-name="Group 94">
                    <g id="Group_93" data-name="Group 93">
                      <path id="Path_46" data-name="Path 46" d="M11.894,4.578.74,1.894A.9.9,0,0,1,.033.739.9.9,0,0,1,1.187.033L12.342,2.717a.9.9,0,0,1,.705,1.153A.9.9,0,0,1,11.894,4.578Z" fill="#0c7ac0"/>
                    </g>
                  </g>
                </g>
              </g>
            </g>
            <g id="Group_102" data-name="Group 102" transform="translate(8.144 16.357)">
              <g id="Group_101" data-name="Group 101" transform="translate(0 0)">
                <g id="Group_100" data-name="Group 100">
                  <g id="Group_99" data-name="Group 99">
                    <g id="Group_98" data-name="Group 98">
                      <path id="Path_47" data-name="Path 47" d="M11.894,4.577.74,1.893A.9.9,0,0,1,.033.74.9.9,0,0,1,1.187.033L12.34,2.719a.9.9,0,0,1,.707,1.153A.9.9,0,0,1,11.894,4.577Z" fill="#0c7ac0"/>
                    </g>
                  </g>
                </g>
              </g>
            </g>
          </g>
        </g>
      </g>
    </g>
  </g>
</svg>
