<svg xmlns="http://www.w3.org/2000/svg" xmlns:xlink="http://www.w3.org/1999/xlink" width="89.37" height="17.873" viewBox="0 0 89.37 17.873">
  <defs>
    <clipPath id="clip-path">
      <path id="Path_68" data-name="Path 68" d="M0-18.417H89.37V-36.29H0Z" transform="translate(0 36.29)" fill="#f0f3f5"/>
    </clipPath>
  </defs>
  <g id="Group_328" data-name="Group 328" clip-path="url(#clip-path)">
    <g id="Group_320" data-name="Group 320" transform="translate(31.44 0.875)">
      <path id="Path_60" data-name="Path 60" d="M-14.87-17.308l-3.886-10.707-.052-.006-4.038,10.668-.043,0L-29.3-33.408h2.441q1.978,5.077,3.956,10.153h.049l4.116-10.849L-14.8-23.263l.049.011,4.2-10.162h2.441Z" transform="translate(29.3 34.105)" fill="#f0f3f5"/>
    </g>
    <g id="Group_321" data-name="Group 321" transform="translate(0 0)">
      <path id="Path_61" data-name="Path 61" d="M-4.785-18.411c-.207,0-.421.013-.634,0a4.339,4.339,0,0,1-1.428-.339,4.214,4.214,0,0,1-2.228-2.209,4.363,4.363,0,0,1-.352-1.809c.006-3.114,0-6.228.008-9.342A4.063,4.063,0,0,1-7.94-35.255a4.157,4.157,0,0,1,2.111-.971,2.392,2.392,0,0,1,.77-.037c.039.065,0,.117-.02.166a21.548,21.548,0,0,0-.958,3.469,22.19,22.19,0,0,0-.322,2.349c-.046.567-.079,1.136-.093,1.706-.007.45-.039.9-.017,1.348.031.613.036,1.227.091,1.84s.111,1.2.2,1.793a22.194,22.194,0,0,0,1.36,5.021.192.192,0,0,1,.03.16" transform="translate(9.428 36.278)" fill="#f0f3f5"/>
    </g>
    <g id="Group_322" data-name="Group 322" transform="translate(83.166 6.928)">
      <path id="Path_62" data-name="Path 62" d="M-2.215-10.112H-4.364v-9.527h2.148c.041.265-.031.549.023.846a2.911,2.911,0,0,1,4.033-.57c-.327.652-.654,1.306-.986,1.971a3.591,3.591,0,0,0-.6-.308A1.654,1.654,0,0,0-2-16.617,4.249,4.249,0,0,0-2.2-15.4c-.036,1.611-.009,3.222-.019,4.838a2.716,2.716,0,0,1,.005.453" transform="translate(4.364 19.926)" fill="#f0f3f5"/>
    </g>
    <g id="Group_323" data-name="Group 323" transform="translate(5.974 0.001)">
      <path id="Path_63" data-name="Path 63" d="M-12.254-4.347a3.415,3.415,0,0,0-.04-.567A4.3,4.3,0,0,0-13.488-7.3a4.106,4.106,0,0,0-2.96-1.255c-1.941-.014-3.882,0-5.824,0a.258.258,0,0,0-.186.036A17.8,17.8,0,0,0-23.252-6.4a20.337,20.337,0,0,0-.635,2.791,20.014,20.014,0,0,0-.244,2.55A26.094,26.094,0,0,0-23.995,2.8a24.07,24.07,0,0,0,.411,2.411,19.278,19.278,0,0,0,1.124,3.4,4.967,4.967,0,0,0,.336.7h5.608a3.914,3.914,0,0,0,.661-.051,4.2,4.2,0,0,0,1.7-.665,4.1,4.1,0,0,0,1.9-3.49c.025-3.15.008-6.3.005-9.444M-19.216,8.017a.782.782,0,0,1-1.281-.1,15.175,15.175,0,0,1-1.582-2.7,10.839,10.839,0,0,1-.757-2.578A15.716,15.716,0,0,1-23.025.491a12.772,12.772,0,0,1,.476-3.581,11.559,11.559,0,0,1,1.433-3.051c.219-.334.444-.663.685-.982a.708.708,0,0,1,.755-.318.827.827,0,0,1,.667.6.569.569,0,0,1-.135.5,17.276,17.276,0,0,0-1.031,1.552A9.863,9.863,0,0,0-21.36-1.461,11.231,11.231,0,0,0-21.5.3a11.817,11.817,0,0,0,.164,2.1,10.055,10.055,0,0,0,.6,2.073,11.489,11.489,0,0,0,1.269,2.282,4.821,4.821,0,0,1,.372.546.578.578,0,0,1-.113.723m1.149-6.751A7.523,7.523,0,0,0-16.552,4.88a.782.782,0,0,1,.127.23.415.415,0,0,1-.043.347.555.555,0,0,1-.751.23.561.561,0,0,1-.192-.169,8.863,8.863,0,0,1-1.55-3.166,9.027,9.027,0,0,1-.22-1.536,8.171,8.171,0,0,1,0-1.082,7.783,7.783,0,0,1,.944-3.444,12.341,12.341,0,0,1,.823-1.275.567.567,0,0,1,.958.015.371.371,0,0,1,0,.459c-.146.222-.3.435-.452.657a6.929,6.929,0,0,0-1.126,2.831,8.589,8.589,0,0,0-.029,2.29" transform="translate(24.145 8.565)" fill="#f0f3f5"/>
    </g>
    <g id="Group_324" data-name="Group 324" transform="translate(19.522 0.654)">
      <path id="Path_64" data-name="Path 64" d="M-7.716,0c-2.5,5.378-5,10.725-7.489,16.088h2.42q.846-1.845,1.695-3.687h6.549l1.6,3.685H-.485Zm-2.431,10.267L-7.787,5.1l.057-.008c.756,1.716,1.5,3.437,2.26,5.177Z" transform="translate(15.205)" fill="#f0f3f5"/>
    </g>
    <g id="Group_325" data-name="Group 325" transform="translate(61.572 0.168)">
      <path id="Path_65" data-name="Path 65" d="M-9.923-11.195a4.894,4.894,0,0,0-.612-1.824,4.965,4.965,0,0,0-1.237-1.417,3.96,3.96,0,0,0-1.523-.734,4.327,4.327,0,0,0-1.545-.088,3.8,3.8,0,0,0-1.348.428,4.92,4.92,0,0,0-1.086.819c-.03.029-.055.074-.135.035v-8.082h-2.143V-5.495h2.136c.035-.325-.025-.644.033-.964a.391.391,0,0,1,.178.126,4.092,4.092,0,0,0,3.446,1.1,3.972,3.972,0,0,0,1.961-.8,4.812,4.812,0,0,0,1.723-2.574,6.343,6.343,0,0,0,.152-2.582m-2.5,2.559a2.576,2.576,0,0,1-2.007,1.481,2.8,2.8,0,0,1-.4,0,2.581,2.581,0,0,1-2.554-2,3.925,3.925,0,0,1,.079-2.408,2.567,2.567,0,0,1,2.1-1.75,2.62,2.62,0,0,1,1.469.159,2.472,2.472,0,0,1,1.031.873,3.429,3.429,0,0,1,.608,1.79,3.417,3.417,0,0,1-.334,1.855" transform="translate(19.552 22.059)" fill="#f0f3f5"/>
    </g>
    <g id="Group_326" data-name="Group 326" transform="translate(50.674 6.927)">
      <path id="Path_66" data-name="Path 66" d="M-7.647-6.52a.157.157,0,0,0-.07.072,5.828,5.828,0,0,1-1,1.24,2.378,2.378,0,0,1-2.184.445,2.292,2.292,0,0,1-1.711-1.6,2.594,2.594,0,0,1-.164-.952h6.821c.019-.035.029-.046.029-.057.006-.146.012-.292.014-.437a6,6,0,0,0-.5-2.625,3.969,3.969,0,0,0-1.869-1.95,4.559,4.559,0,0,0-1.639-.438,5.4,5.4,0,0,0-1.772.108,4.117,4.117,0,0,0-2.561,1.835,5.617,5.617,0,0,0-.814,2.886,6.471,6.471,0,0,0,.108,1.379,4.538,4.538,0,0,0,1.845,3.052,4.357,4.357,0,0,0,2.079.768,6.045,6.045,0,0,0,1.194.019A4.569,4.569,0,0,0-7.755-3.41,5.461,5.461,0,0,0-6.1-5.087a2.877,2.877,0,0,0,.261-.426ZM-12.6-9.238a2.262,2.262,0,0,1,2.508-1.641A2.092,2.092,0,0,1-8.16-9.188a.723.723,0,0,1,.011.1H-12.6a.181.181,0,0,1,0-.153" transform="translate(15.067 12.847)" fill="#f0f3f5"/>
    </g>
    <g id="Group_327" data-name="Group 327" transform="translate(72.363 6.926)">
      <path id="Path_67" data-name="Path 67" d="M-7.628-6.516a9.351,9.351,0,0,1-.561.785A3.21,3.21,0,0,1-8.952-5a2.488,2.488,0,0,1-1.427.313,2.35,2.35,0,0,1-1.169-.342A2.483,2.483,0,0,1-12.65-6.6a2.179,2.179,0,0,1-.1-.694h6.863c.006-.075.013-.124.014-.173a8.9,8.9,0,0,0-.075-1.44,4.575,4.575,0,0,0-1.428-2.861A3.923,3.923,0,0,0-9.2-12.71a5.493,5.493,0,0,0-2.319-.012,4.111,4.111,0,0,0-2.72,1.9,5.074,5.074,0,0,0-.729,2.141,7.042,7.042,0,0,0,.038,2.062,4.854,4.854,0,0,0,.907,2.147,4.178,4.178,0,0,0,2.089,1.481,5.359,5.359,0,0,0,2.08.228A5.062,5.062,0,0,0-8.309-3.1,5.061,5.061,0,0,0-6.021-5.143a1.328,1.328,0,0,0,.212-.366Zm-2.521-4.362a2.078,2.078,0,0,1,2.014,1.8h-4.453a2.237,2.237,0,0,1,2.439-1.8Z" transform="translate(15.03 12.84)" fill="#f0f3f5"/>
    </g>
  </g>
</svg>
